<svg width="20" height="20" viewBox="0 0 20 20" fill="none" xmlns="http://www.w3.org/2000/svg">
<path d="M10.01 0.019001C4.515 0.019001 0.0190001 4.515 0.0190001 10.01C0.0190001 15.504 4.515 20 10.01 20C15.504 20 20 15.504 20 10.01C20 4.515 15.554 0.019001 10.01 0.019001ZM14.605 14.455C14.406 14.754 14.056 14.855 13.755 14.656C11.406 13.206 8.459 12.906 4.962 13.705C4.614 13.807 4.314 13.557 4.214 13.256C4.113 12.906 4.363 12.608 4.664 12.507C8.459 11.657 11.757 12.008 14.354 13.607C14.704 13.756 14.754 14.155 14.605 14.455ZM15.805 11.708C15.554 12.057 15.105 12.207 14.754 11.957C12.057 10.311 7.962 9.809 4.815 10.809C4.417 10.91 3.965 10.709 3.866 10.311C3.765 9.909 3.966 9.459 4.365 9.359C8.011 8.261 12.508 8.811 15.604 10.71C15.904 10.859 16.054 11.358 15.805 11.708V11.708ZM15.904 8.909C12.707 7.012 7.362 6.812 4.314 7.763C4.08221 7.82979 3.83359 7.80472 3.6198 7.69298C3.40601 7.58124 3.24349 7.39144 3.166 7.163C3.09802 6.93093 3.1224 6.68156 3.23404 6.46704C3.34567 6.25253 3.53592 6.08948 3.765 6.012C7.312 4.963 13.157 5.162 16.854 7.363C17.303 7.612 17.453 8.212 17.203 8.661C16.953 9.011 16.354 9.159 15.904 8.909Z" fill="white"/>
</svg>
