<svg width="20" height="20" viewBox="0 0 20 20" fill="none" xmlns="http://www.w3.org/2000/svg">
<path d="M9.991 0C4.496 0 0 4.496 0 9.991C0 15.485 4.496 19.981 9.991 19.981C15.485 19.981 19.981 15.485 19.981 9.991C19.981 4.496 15.535 0 9.991 0ZM14.586 14.436C14.387 14.735 14.037 14.836 13.736 14.637C11.387 13.187 8.44 12.887 4.943 13.686C4.595 13.788 4.295 13.538 4.195 13.237C4.094 12.887 4.344 12.589 4.645 12.488C8.44 11.638 11.738 11.989 14.335 13.588C14.685 13.737 14.735 14.136 14.586 14.436ZM15.786 11.689C15.535 12.038 15.086 12.188 14.735 11.938C12.038 10.292 7.943 9.79 4.796 10.79C4.398 10.891 3.946 10.69 3.847 10.292C3.746 9.89 3.947 9.44 4.346 9.34C7.992 8.242 12.489 8.792 15.585 10.691C15.885 10.84 16.035 11.339 15.786 11.689V11.689ZM15.885 8.89C12.688 6.993 7.343 6.793 4.295 7.744C4.06321 7.81079 3.81459 7.78571 3.6008 7.67398C3.38701 7.56224 3.22449 7.37244 3.147 7.144C3.07902 6.91193 3.1034 6.66256 3.21504 6.44804C3.32667 6.23353 3.51692 6.07048 3.746 5.993C7.293 4.944 13.138 5.143 16.835 7.344C17.284 7.593 17.434 8.193 17.184 8.642C16.934 8.992 16.335 9.14 15.885 8.89Z" fill="#1AB52A"/>
</svg>
